<svg width="149" height="118" viewBox="0 0 149 118" fill="none" xmlns="http://www.w3.org/2000/svg">
<path d="M75.8868 58.3706C75.163 80.4501 62.8412 97.9644 40.787 97.2414C18.7328 96.5184 8.19896 78.2548 8.92279 56.1753C9.64661 34.0958 21.354 16.5613 43.4082 17.2843C65.4624 18.0073 76.6106 36.291 75.8868 58.3706Z" fill="black"/>
<path d="M82.801 91.6262C81.769 123.106 63.9127 114.385 41.5572 113.652C19.2017 112.919 0.614641 126.489 1.84453 88.9723C2.37544 72.7772 21.7697 34.5843 44.1252 35.3172C66.4807 36.0501 83.332 75.4312 82.801 91.6262Z" fill="black"/>
<circle cx="27.5358" cy="37.7749" r="3" transform="rotate(1.87763 27.5358 37.7749)" fill="white"/>
<circle cx="55.5207" cy="38.6924" r="3" transform="rotate(1.87763 55.5207 38.6924)" fill="white"/>
<ellipse cx="42.4706" cy="85.7902" rx="32.5" ry="29.5" transform="rotate(1.87763 42.4706 85.7902)" fill="white"/>
<path d="M40.8071 55.173L35.5324 43.6895L46.3688 43.7891L40.8071 55.173Z" fill="white"/>
<path d="M66.8794 83.7205C63.6093 86.6249 56.9733 88.743 54.4923 86.2888C52.0112 83.8347 54.6246 77.7377 57.8948 74.8332C61.1649 71.9288 65.8272 71.5637 68.3082 74.0178C70.7893 76.472 70.1496 80.816 66.8794 83.7205Z" fill="black"/>
<path d="M25.2745 74.0025C28.8297 76.4481 32.1031 82.1731 29.9389 84.9686C27.7747 87.7641 20.9925 86.5716 17.4373 84.126C13.8821 81.6803 12.7544 77.4315 14.9186 74.636C17.0828 71.8405 21.7193 71.5568 25.2745 74.0025Z" fill="black"/>
<path d="M64 52.5C64 55.2614 62.433 57.5 60.5 57.5C58.567 57.5 57 55.2614 57 52.5C57 49.7386 58.567 43 60.5 43C62.433 43 64 49.7386 64 52.5Z" fill="#7EC1FF"/>
<mask id="path-10-inside-1" fill="white">
<path fill-rule="evenodd" clip-rule="evenodd" d="M113 41C132.882 41 149 31.8218 149 20.5C149 9.17816 132.882 0 113 0C93.1177 0 77 9.17816 77 20.5C77 24.9843 79.5285 29.1324 83.818 32.507L77.8375 37.3629H92.5229C98.3361 39.6563 105.393 41 113 41Z"/>
</mask>
<path fill-rule="evenodd" clip-rule="evenodd" d="M113 41C132.882 41 149 31.8218 149 20.5C149 9.17816 132.882 0 113 0C93.1177 0 77 9.17816 77 20.5C77 24.9843 79.5285 29.1324 83.818 32.507L77.8375 37.3629H92.5229C98.3361 39.6563 105.393 41 113 41Z" fill="white"/>
<path d="M83.818 32.507L84.4483 33.2834L85.4196 32.4947L84.4363 31.7211L83.818 32.507ZM77.8375 37.3629L77.2072 36.5866L75.0195 38.3629H77.8375V37.3629ZM92.5229 37.3629L92.8899 36.4327L92.7131 36.3629H92.5229V37.3629ZM148 20.5C148 25.6454 144.328 30.501 137.961 34.1267C131.623 37.7359 122.8 40 113 40V42C123.082 42 132.259 39.675 138.951 35.8647C145.613 32.0708 150 26.6764 150 20.5H148ZM113 1C122.8 1 131.623 3.26407 137.961 6.8733C144.328 10.499 148 15.3546 148 20.5H150C150 14.3236 145.613 8.92916 138.951 5.13533C132.259 1.32501 123.082 -1 113 -1V1ZM78 20.5C78 15.3546 81.6719 10.499 88.039 6.8733C94.3771 3.26407 103.2 1 113 1V-1C102.918 -1 93.7406 1.32501 87.0493 5.13533C80.387 8.92916 76 14.3236 76 20.5H78ZM84.4363 31.7211C80.2973 28.4648 78 24.5785 78 20.5H76C76 25.3902 78.7598 29.8 83.1997 33.293L84.4363 31.7211ZM78.4679 38.1392L84.4483 33.2834L83.1877 31.7307L77.2072 36.5866L78.4679 38.1392ZM92.5229 36.3629H77.8375V38.3629H92.5229V36.3629ZM113 40C105.506 40 98.5753 38.6756 92.8899 36.4327L92.1559 38.2931C98.097 40.6369 105.279 42 113 42V40Z" fill="black" mask="url(#path-10-inside-1)"/>
<path d="M86.9296 18.16H88.744V26H86.9296V18.16ZM94.3678 25.7088C94.1961 25.8357 93.9833 25.9328 93.7294 26C93.483 26.0597 93.2217 26.0896 92.9454 26.0896C92.2286 26.0896 91.6723 25.9067 91.2766 25.5408C90.8883 25.1749 90.6942 24.6373 90.6942 23.928V21.4528H89.7646V20.1088H90.6942V18.6416H92.4414V20.1088H93.9422V21.4528H92.4414V23.9056C92.4414 24.1595 92.5049 24.3573 92.6318 24.4992C92.7662 24.6336 92.9529 24.7008 93.1918 24.7008C93.4681 24.7008 93.7033 24.6261 93.8974 24.4768L94.3678 25.7088ZM96.0206 17.6C96.3342 17.6 96.5918 17.7008 96.7934 17.9024C96.995 18.0965 97.0958 18.3541 97.0958 18.6752C97.0958 18.8245 97.0771 18.9739 97.0398 19.1232C97.0025 19.2725 96.9241 19.4965 96.8046 19.7952L96.155 21.408H95.0462L95.5278 19.6384C95.3411 19.5563 95.1955 19.4331 95.091 19.2688C94.9865 19.1045 94.9342 18.9067 94.9342 18.6752C94.9342 18.3541 95.035 18.0965 95.2366 17.9024C95.4457 17.7008 95.707 17.6 96.0206 17.6ZM100.11 26.0896C99.6099 26.0896 99.1208 26.0299 98.643 25.9104C98.1651 25.7835 97.7843 25.6267 97.5006 25.44L98.083 24.1856C98.3518 24.3573 98.6766 24.4992 99.0574 24.6112C99.4382 24.7157 99.8115 24.768 100.177 24.768C100.917 24.768 101.286 24.5851 101.286 24.2192C101.286 24.0475 101.185 23.9243 100.984 23.8496C100.782 23.7749 100.472 23.7115 100.054 23.6592C99.5614 23.5845 99.1544 23.4987 98.8334 23.4016C98.5123 23.3045 98.2323 23.1328 97.9934 22.8864C97.7619 22.64 97.6462 22.2891 97.6462 21.8336C97.6462 21.4528 97.7544 21.1168 97.971 20.8256C98.195 20.5269 98.516 20.2955 98.9342 20.1312C99.3598 19.9669 99.86 19.8848 100.435 19.8848C100.861 19.8848 101.282 19.9333 101.701 20.0304C102.126 20.12 102.477 20.2469 102.753 20.4112L102.171 21.6544C101.641 21.3557 101.062 21.2064 100.435 21.2064C100.062 21.2064 99.7816 21.2587 99.595 21.3632C99.4083 21.4677 99.315 21.6021 99.315 21.7664C99.315 21.9531 99.4158 22.0837 99.6174 22.1584C99.819 22.2331 100.14 22.304 100.581 22.3712C101.073 22.4533 101.477 22.5429 101.79 22.64C102.104 22.7296 102.376 22.8976 102.608 23.144C102.839 23.3904 102.955 23.7339 102.955 24.1744C102.955 24.5477 102.843 24.88 102.619 25.1712C102.395 25.4624 102.066 25.6901 101.633 25.8544C101.208 26.0112 100.7 26.0896 100.11 26.0896ZM111.125 26.1344C110.311 26.1344 109.576 25.9589 108.918 25.608C108.269 25.2571 107.757 24.7755 107.384 24.1632C107.018 23.5435 106.835 22.8491 106.835 22.08C106.835 21.3109 107.018 20.6203 107.384 20.008C107.757 19.3883 108.269 18.9029 108.918 18.552C109.576 18.2011 110.311 18.0256 111.125 18.0256C111.939 18.0256 112.67 18.2011 113.32 18.552C113.97 18.9029 114.481 19.3883 114.854 20.008C115.228 20.6203 115.414 21.3109 115.414 22.08C115.414 22.8491 115.228 23.5435 114.854 24.1632C114.481 24.7755 113.97 25.2571 113.32 25.608C112.67 25.9589 111.939 26.1344 111.125 26.1344ZM111.125 24.5888C111.588 24.5888 112.006 24.4843 112.379 24.2752C112.753 24.0587 113.044 23.76 113.253 23.3792C113.469 22.9984 113.578 22.5653 113.578 22.08C113.578 21.5947 113.469 21.1616 113.253 20.7808C113.044 20.4 112.753 20.1051 112.379 19.896C112.006 19.6795 111.588 19.5712 111.125 19.5712C110.662 19.5712 110.244 19.6795 109.87 19.896C109.497 20.1051 109.202 20.4 108.986 20.7808C108.777 21.1616 108.672 21.5947 108.672 22.08C108.672 22.5653 108.777 22.9984 108.986 23.3792C109.202 23.76 109.497 24.0587 109.87 24.2752C110.244 24.4843 110.662 24.5888 111.125 24.5888ZM119.242 23.6368L118.402 24.4656V26H116.655V17.6896H118.402V22.3936L120.956 19.9744H123.039L120.53 22.528L123.263 26H121.146L119.242 23.6368ZM126.37 19.8848C127.303 19.8848 128.02 20.1088 128.52 20.5568C129.02 20.9973 129.27 21.6656 129.27 22.5616V26H127.635V25.2496C127.307 25.8096 126.694 26.0896 125.798 26.0896C125.335 26.0896 124.932 26.0112 124.589 25.8544C124.253 25.6976 123.995 25.4811 123.816 25.2048C123.637 24.9285 123.547 24.6149 123.547 24.264C123.547 23.704 123.756 23.2635 124.174 22.9424C124.6 22.6213 125.253 22.4608 126.134 22.4608H127.523C127.523 22.08 127.407 21.7888 127.176 21.5872C126.945 21.3781 126.597 21.2736 126.134 21.2736C125.813 21.2736 125.496 21.3259 125.182 21.4304C124.876 21.5275 124.615 21.6619 124.398 21.8336L123.771 20.6128C124.1 20.3813 124.492 20.2021 124.947 20.0752C125.41 19.9483 125.884 19.8848 126.37 19.8848ZM126.235 24.9136C126.534 24.9136 126.799 24.8464 127.03 24.712C127.262 24.5701 127.426 24.3648 127.523 24.096V23.48H126.325C125.608 23.48 125.25 23.7152 125.25 24.1856C125.25 24.4096 125.335 24.5888 125.507 24.7232C125.686 24.8501 125.929 24.9136 126.235 24.9136ZM136.723 19.9744L134.002 26.3696C133.725 27.064 133.382 27.5531 132.971 27.8368C132.568 28.1205 132.079 28.2624 131.504 28.2624C131.19 28.2624 130.88 28.2139 130.574 28.1168C130.268 28.0197 130.018 27.8853 129.824 27.7136L130.462 26.4704C130.597 26.5899 130.75 26.6832 130.922 26.7504C131.101 26.8176 131.276 26.8512 131.448 26.8512C131.687 26.8512 131.881 26.7915 132.03 26.672C132.18 26.56 132.314 26.3696 132.434 26.1008L132.456 26.0448L129.846 19.9744H131.65L133.341 24.0624L135.043 19.9744H136.723ZM137.212 18.16H139.295L138.948 23.2784H137.559L137.212 18.16ZM138.254 26.0896C137.948 26.0896 137.69 25.9925 137.481 25.7984C137.279 25.5968 137.178 25.3541 137.178 25.0704C137.178 24.7867 137.279 24.5515 137.481 24.3648C137.682 24.1707 137.94 24.0736 138.254 24.0736C138.567 24.0736 138.825 24.1707 139.026 24.3648C139.228 24.5515 139.329 24.7867 139.329 25.0704C139.329 25.3541 139.224 25.5968 139.015 25.7984C138.814 25.9925 138.56 26.0896 138.254 26.0896Z" fill="black"/>
</svg>
