<svg width="295" height="103" viewBox="0 0 295 103" fill="none" xmlns="http://www.w3.org/2000/svg">
<path d="M181.887 42.6879C181.163 64.7675 168.841 82.2818 146.787 81.5588C124.733 80.8358 114.199 62.5722 114.923 40.4927C115.647 18.4132 127.354 0.878728 149.408 1.60172C171.462 2.32472 182.611 20.6084 181.887 42.6879Z" fill="black"/>
<path d="M188.801 75.9441C187.769 107.424 169.913 98.7026 147.557 97.9698C125.202 97.2369 106.615 110.807 107.845 73.2901C108.375 57.0951 127.77 18.9022 150.125 19.6351C172.481 20.368 189.332 59.749 188.801 75.9441Z" fill="black"/>
<circle cx="133.536" cy="22.0928" r="3" transform="rotate(1.87763 133.536 22.0928)" fill="white"/>
<circle cx="161.521" cy="23.0103" r="3" transform="rotate(1.87763 161.521 23.0103)" fill="white"/>
<ellipse cx="148.471" cy="70.1081" rx="32.5" ry="29.5" transform="rotate(1.87763 148.471 70.1081)" fill="white"/>
<path d="M146.807 39.4909L141.532 28.0074L152.369 28.107L146.807 39.4909Z" fill="white"/>
<path d="M183.932 51.4833C186.104 47.6868 191.716 43.561 194.851 45.0946C197.986 46.6282 197.456 53.2405 195.284 57.037C193.112 60.8335 188.81 62.6679 185.676 61.1343C182.541 59.6007 181.76 55.2797 183.932 51.4833Z" fill="black"/>
<path d="M103.441 56.5401C101.602 52.6368 101.657 46.0423 104.935 44.7172C108.212 43.392 113.471 47.838 115.311 51.7414C117.15 55.6448 115.985 59.8833 112.707 61.2085C109.429 62.5336 105.281 60.4435 103.441 56.5401Z" fill="black"/>
<path d="M73.4636 60.7794C73.2546 60.7796 73.0479 60.7309 72.8575 60.6365C72.667 60.5422 72.4971 60.4043 72.3591 60.2322C70.8427 58.3399 68.9754 56.8237 66.8819 55.7847C64.7884 54.7456 62.5167 54.2077 60.2184 54.2067C56.7816 54.2067 53.3653 55.4427 50.604 57.6862C50.4491 57.812 50.2732 57.9031 50.0861 57.9543C49.8991 58.0055 49.7047 58.0159 49.5141 57.9848C49.3234 57.9537 49.1402 57.8818 48.9749 57.7731C48.8096 57.6645 48.6655 57.5212 48.5507 57.3515C48.4359 57.1818 48.3528 56.9889 48.306 56.784C48.2593 56.5791 48.2498 56.3661 48.2782 56.1572C48.3066 55.9483 48.3722 55.7475 48.4714 55.5664C48.5705 55.3853 48.7013 55.2273 48.8562 55.1016C52.1493 52.442 56.1305 51.0022 60.2214 50.9912C65.7145 50.9912 70.9433 53.5855 74.5711 58.1079C74.7564 58.3411 74.8766 58.6278 74.9174 58.9338C74.9582 59.2398 74.9178 59.5522 74.8011 59.8337C74.6844 60.1153 74.4963 60.3541 74.2591 60.5218C74.022 60.6895 73.7459 60.7789 73.4636 60.7794Z" fill="#F04C4D"/>
<path d="M39.3536 46.5471C39.1048 46.5471 38.8601 46.4778 38.6424 46.3458C38.4247 46.2138 38.2411 46.0234 38.109 45.7924C37.9769 45.5614 37.9005 45.2973 37.8869 45.0251C37.8734 44.7529 37.9232 44.4814 38.0317 44.236C39.0982 41.8271 39.6535 39.1851 39.6562 36.5078C39.6562 33.4049 38.9071 30.3407 37.4942 27.6562C37.3962 27.4731 37.3323 27.2706 37.306 27.0603C37.2798 26.85 37.2918 26.6361 37.3413 26.4309C37.3908 26.2257 37.4768 26.0333 37.5945 25.8647C37.7122 25.6961 37.8591 25.5547 38.0268 25.4485C38.1946 25.3424 38.3798 25.2737 38.5719 25.2463C38.764 25.219 38.9591 25.2335 39.1461 25.2891C39.333 25.3447 39.508 25.4403 39.6611 25.5704C39.8142 25.7004 39.9423 25.8623 40.038 26.0468C41.5961 29.0078 42.4693 32.3415 42.5814 35.7571C42.6935 39.1728 42.0412 42.5666 40.6814 45.6426C40.5594 45.9143 40.3703 46.1431 40.1356 46.303C39.9009 46.4629 39.63 46.5474 39.3536 46.5471Z" fill="#499ED7"/>
<path d="M14.1528 83.2014L32.9675 43.8458C33.1813 43.3985 33.4882 43.0126 33.8632 42.7193C34.2383 42.426 34.6711 42.2336 35.1266 42.1574C35.5821 42.0813 36.0476 42.1236 36.4854 42.281C36.9233 42.4385 37.3211 42.7065 37.6469 43.0636L52.7663 59.6305C53.0921 59.9875 53.3368 60.4235 53.4804 60.9032C53.6241 61.3829 53.6627 61.893 53.5933 62.3921C53.5238 62.8913 53.3481 63.3655 53.0804 63.7765C52.8128 64.1875 52.4606 64.5237 52.0524 64.758L16.1356 85.3741C15.8583 85.5334 15.5418 85.5914 15.2323 85.5397C14.9228 85.488 14.6364 85.3293 14.4151 85.0867C14.1937 84.8441 14.0488 84.5304 14.0016 84.1912C13.9545 83.8521 14.0074 83.5053 14.1528 83.2014Z" fill="#FFCC5C"/>
<path d="M52.7662 59.6305L37.6469 43.0636C37.3211 42.7065 36.9233 42.4385 36.4854 42.281C36.0476 42.1236 35.5821 42.0813 35.1266 42.1574C34.6711 42.2336 34.2383 42.426 33.8632 42.7193C33.4882 43.0126 33.1813 43.3985 32.9675 43.8458L32.803 44.1934L38.3049 50.2221C39.2825 51.2931 40.0165 52.601 40.4474 54.0402C40.8784 55.4794 40.9944 57.0096 40.7859 58.507C40.5775 60.0044 40.0505 61.427 39.2475 62.66C38.4445 63.8929 37.388 64.9016 36.1635 65.6045L17.4281 76.3583L14.1557 83.2014C14.0104 83.5053 13.9574 83.8521 14.0046 84.1912C14.0517 84.5304 14.1966 84.8441 14.418 85.0867C14.6394 85.3293 14.9257 85.488 15.2352 85.5397C15.5448 85.5914 15.8613 85.5334 16.1386 85.3741L52.0554 64.758C52.4633 64.5234 52.8152 64.1869 53.0826 63.7758C53.35 63.3647 53.5253 62.8904 53.5945 62.3913C53.6637 61.8922 53.6248 61.3822 53.4809 60.9026C53.337 60.423 53.0922 59.9873 52.7662 59.6305Z" fill="#F7B546"/>
<path d="M23.2942 81.2636L26.9749 79.1521L17.6189 75.9494L16.2354 78.8463L23.2942 81.2636ZM19.916 71.1438L33.076 75.6501L36.7567 73.5386L21.3025 68.247L19.916 71.1438ZM23.5967 63.4414L42.855 70.0366L46.5357 67.9251L24.9832 60.5445L23.5967 63.4414ZM27.2804 55.7421L52.4635 64.3652C52.8729 64.0161 53.1877 63.5517 53.3745 63.0215C53.5613 62.4914 53.613 61.9155 53.5239 61.3556L28.6669 52.8452L27.2804 55.7421ZM30.961 48.0429L47.2935 53.6338L42.8168 48.7317L32.3446 45.146L30.961 48.0429Z" fill="#F47423"/>
<path d="M53.521 61.3559L40.8369 57.0138C40.8398 58.1082 40.6871 59.1897 40.361 60.2229L52.4635 64.3655C52.8748 64.005 53.1685 63.5543 53.3536 63.0619L53.3947 62.9492C53.5601 62.4386 53.6036 61.8901 53.521 61.3559ZM36.7567 73.5389L27.7239 70.4457L24.0432 72.5572L33.076 75.6504L33.9338 75.1579L36.7567 73.5389ZM38.3018 50.2223C38.4282 50.3607 38.5045 50.5216 38.6191 50.6665L47.2906 53.6374L42.8139 48.732L34.2687 45.8062L38.3018 50.2223ZM16.2354 78.8466L23.2942 81.2639L26.9748 79.1524L17.942 76.0592L17.425 76.3585L16.2354 78.8466ZM36.1604 65.6047L33.8251 66.9469L42.8579 70.0401L46.5386 67.9286L37.2855 64.7614C36.9183 65.0511 36.5746 65.3665 36.1604 65.6047Z" fill="#ED5D25"/>
<path d="M23.5001 41.335C22.6509 41.3316 21.8206 41.0597 21.1089 40.5519C20.3972 40.0442 19.8343 39.3222 19.4879 38.4726C19.1415 37.623 19.0262 36.6819 19.1558 35.7623C19.2855 34.8426 19.6546 33.9835 20.2189 33.2881C19.4927 32.4048 19.0908 31.2582 19.0908 30.0693C19.0908 28.8805 19.4927 27.7338 20.2189 26.8506C19.6546 26.1552 19.2855 25.2961 19.1558 24.3764C19.0262 23.4568 19.1415 22.5157 19.4879 21.6661C19.8343 20.8165 20.3972 20.0945 21.1089 19.5867C21.8206 19.079 22.6509 18.8071 23.5001 18.8037C23.8896 18.8037 24.2632 18.9733 24.5387 19.2751C24.8141 19.5769 24.9688 19.9863 24.9688 20.4131C24.9688 20.8399 24.8141 21.2493 24.5387 21.5511C24.2632 21.8529 23.8896 22.0225 23.5001 22.0225C23.1106 22.0225 22.737 22.192 22.4615 22.4938C22.1861 22.7957 22.0313 23.205 22.0313 23.6318C22.0313 24.0587 22.1861 24.468 22.4615 24.7698C22.737 25.0717 23.1106 25.2412 23.5001 25.2412C23.8896 25.2412 24.2632 25.4108 24.5387 25.7126C24.8141 26.0144 24.9688 26.4238 24.9688 26.8506C24.9688 27.2774 24.8141 27.6868 24.5387 27.9886C24.2632 28.2904 23.8896 28.46 23.5001 28.46C23.1106 28.46 22.737 28.6295 22.4615 28.9313C22.1861 29.2332 22.0313 29.6425 22.0313 30.0693C22.0313 30.4962 22.1861 30.9055 22.4615 31.2073C22.737 31.5092 23.1106 31.6787 23.5001 31.6787C23.8896 31.6787 24.2632 31.8483 24.5387 32.1501C24.8141 32.4519 24.9688 32.8613 24.9688 33.2881C24.9688 33.7149 24.8141 34.1243 24.5387 34.4261C24.2632 34.7279 23.8896 34.8975 23.5001 34.8975C23.1106 34.8975 22.737 35.067 22.4615 35.3688C22.1861 35.6707 22.0313 36.08 22.0313 36.5068C22.0313 36.9337 22.1861 37.343 22.4615 37.6448C22.737 37.9467 23.1106 38.1162 23.5001 38.1162C23.8896 38.1162 24.2632 38.2858 24.5387 38.5876C24.8141 38.8894 24.9688 39.2988 24.9688 39.7256C24.9688 40.1524 24.8141 40.5618 24.5387 40.8636C24.2632 41.1654 23.8896 41.335 23.5001 41.335Z" fill="#92CA62"/>
<path d="M23.5966 28.4379C23.8802 28.4184 24.1523 28.3078 24.3789 28.1201C24.6056 27.9324 24.7769 27.6757 24.8715 27.3821C24.5882 27.4029 24.3166 27.5138 24.0901 27.7014C23.8637 27.889 23.6921 28.1449 23.5966 28.4379ZM24.8715 20.9446C24.5882 20.9654 24.3166 21.0763 24.0901 21.2639C23.8637 21.4515 23.6921 21.7074 23.5966 22.0004C23.8802 21.9809 24.1523 21.8704 24.3789 21.6826C24.6056 21.4949 24.7769 21.2382 24.8715 20.9446ZM20.5621 35.4065C20.5621 34.1705 20.9881 33.0439 21.6872 32.1877C20.961 31.3045 20.5591 30.1578 20.5591 28.969C20.5591 27.7801 20.961 26.6335 21.6872 25.7502C20.9421 24.8416 20.5404 23.6562 20.5639 22.4349C20.5874 21.2136 21.0341 20.0478 21.8135 19.1743C21.1643 19.4705 20.5892 19.9325 20.1362 20.5218C19.6832 21.1111 19.3653 21.8106 19.2092 22.5619C19.0531 23.3132 19.0633 24.0946 19.2388 24.8407C19.4144 25.5868 19.7503 26.2761 20.2185 26.851C19.4916 27.7339 19.0894 28.8808 19.0894 30.0698C19.0894 31.2588 19.4916 32.4056 20.2185 33.2885C19.6542 33.984 19.285 34.8431 19.1554 35.7627C19.0257 36.6823 19.141 37.6235 19.4874 38.4731C19.8339 39.3227 20.3967 40.0447 21.1084 40.5524C21.8201 41.0601 22.6504 41.332 23.4996 41.3354C23.8069 41.3336 24.1057 41.2251 24.3532 41.0256C24.6008 40.8261 24.7842 40.5458 24.8773 40.2249C23.7261 40.1989 22.6299 39.68 21.8234 38.7795C21.0169 37.8789 20.5642 36.6682 20.5621 35.4065Z" fill="#71BC58"/>
<path d="M23.5972 34.8746C23.8802 34.8545 24.1517 34.7437 24.3778 34.556C24.6039 34.3683 24.7748 34.112 24.8691 33.8188C24.5862 33.8398 24.3152 33.9509 24.0892 34.1385C23.8632 34.326 23.6922 34.5819 23.5972 34.8746Z" fill="#71BC58"/>
<path d="M63.8379 44.7438C62.7099 44.7438 61.5819 44.2739 60.7212 43.334C60.4454 43.0322 60.2903 42.6228 60.29 42.1957C60.2898 41.7686 60.4443 41.3589 60.7197 41.0567C60.9951 40.7545 61.3688 40.5846 61.7586 40.5843C62.1483 40.584 62.5222 40.7534 62.798 41.0551C62.9346 41.2045 63.0967 41.323 63.275 41.4038C63.4533 41.4846 63.6445 41.5261 63.8375 41.526C64.0304 41.5258 64.2215 41.484 64.3998 41.4029C64.578 41.3219 64.7399 41.2032 64.8763 41.0535C65.0127 40.9039 65.1208 40.7263 65.1945 40.5309C65.2682 40.3354 65.3061 40.126 65.306 39.9145C65.3058 39.7031 65.2677 39.4937 65.1937 39.2984C65.1197 39.1031 65.0114 38.9257 64.8748 38.7763C64.7373 38.6272 64.6282 38.4497 64.5537 38.2542C64.4792 38.0586 64.4409 37.8487 64.4409 37.6368C64.4409 37.4249 64.4792 37.2151 64.5537 37.0195C64.6282 36.8239 64.7373 36.6464 64.8748 36.4974C65.4476 35.8697 66.3788 35.8697 66.9516 36.4974C67.2286 36.7905 67.5997 36.9528 67.9848 36.9491C68.3699 36.9454 68.7382 36.7762 69.0106 36.4778C69.2829 36.1794 69.4373 35.7757 69.4407 35.3538C69.444 34.9318 69.296 34.5253 69.0285 34.2217C68.891 34.0727 68.7818 33.8952 68.7073 33.6996C68.6328 33.504 68.5945 33.2942 68.5945 33.0823C68.5945 32.8704 68.6328 32.6605 68.7073 32.4649C68.7818 32.2694 68.891 32.0919 69.0285 31.9428C69.3039 31.6411 69.6774 31.4716 70.0669 31.4716C70.4563 31.4716 70.8298 31.6411 71.1053 31.9428C71.3857 32.234 71.7573 32.3962 72.1437 32.3962C72.53 32.3962 72.9016 32.234 73.1821 31.9428C73.319 31.7936 73.4275 31.616 73.5011 31.4204C73.5748 31.2248 73.6121 31.015 73.611 30.8034C73.6117 30.5923 73.5742 30.3832 73.5006 30.1881C73.4269 29.9931 73.3187 29.816 73.1821 29.6672C73.0455 29.5178 72.9372 29.3403 72.8632 29.145C72.7892 28.9497 72.7511 28.7404 72.7509 28.5289C72.7508 28.3174 72.7887 28.108 72.8624 27.9126C72.9361 27.7172 73.0442 27.5396 73.1806 27.3899C73.317 27.2403 73.4789 27.1216 73.6571 27.0405C73.8354 26.9594 74.0265 26.9176 74.2194 26.9175C74.4124 26.9173 74.6036 26.9588 74.7819 27.0396C74.9602 27.1204 75.1223 27.2389 75.2589 27.3883C76.0902 28.2992 76.5485 29.5127 76.5485 30.8034C76.5494 32.0381 76.1183 33.2261 75.344 34.1231C74.5697 35.02 73.5111 35.5576 72.386 35.6251C72.3288 36.8127 71.8725 37.9351 71.105 38.776C70.3376 39.6169 69.3133 40.1169 68.2295 40.1796C68.1707 41.3255 67.7448 42.4553 66.9458 43.3276C66.0968 44.2739 64.9659 44.7438 63.8379 44.7438Z" fill="#AE89BE"/>
<path d="M65.3593 36.5068C65.5993 36.7648 65.9135 36.9234 66.2484 36.9557C66.5832 36.988 66.9179 36.8919 67.1953 36.6838C67.116 36.6259 67.0249 36.5873 66.9544 36.5068C66.7145 36.2489 66.4002 36.0902 66.0654 36.0579C65.7305 36.0256 65.3958 36.1217 65.1185 36.3298C65.1978 36.3877 65.2888 36.4296 65.3593 36.5068ZM69.513 31.9555C69.7569 32.206 70.0708 32.3592 70.4039 32.3901C70.737 32.4211 71.07 32.3281 71.3489 32.1261C71.2667 32.0682 71.1785 32.0328 71.108 31.9555C70.8681 31.6976 70.5539 31.5389 70.219 31.5066C69.8842 31.4743 69.5495 31.5704 69.2721 31.7785C69.3514 31.8364 69.4425 31.8783 69.513 31.9555ZM61.2057 41.0581C61.4457 41.3161 61.7599 41.4747 62.0947 41.507C62.4296 41.5393 62.7643 41.4432 63.0417 41.2352C62.9623 41.1772 62.8713 41.1386 62.8008 41.0581C62.5602 40.8012 62.2458 40.6435 61.9112 40.6119C61.5765 40.5802 61.2421 40.6764 60.9648 40.8843C61.0442 40.9423 61.1352 40.9809 61.2057 41.0581Z" fill="#9676B5"/>
<path d="M75.2615 27.4014C75.0209 27.1445 74.7066 26.9868 74.3719 26.9551C74.0372 26.9234 73.7028 27.0197 73.4256 27.2276C73.5049 27.2855 73.596 27.3242 73.6665 27.4014C74.4978 28.3123 74.956 29.5258 74.956 30.8165C74.957 32.0512 74.5259 33.2392 73.7516 34.1362C72.9773 35.0331 71.9187 35.5707 70.7936 35.6382C70.7363 36.8258 70.28 37.9481 69.5126 38.7891C68.7451 39.63 67.7208 40.13 66.637 40.1927C66.5783 41.3386 66.1523 42.4684 65.3533 43.3407C64.7012 44.0552 63.8816 44.4093 63.0356 44.5799C63.303 44.6346 63.5615 44.7505 63.8317 44.7505C64.9584 44.7531 66.0431 44.2818 66.8618 43.4337C67.6806 42.5856 68.1711 41.4255 68.2321 40.1927C69.3155 40.1286 70.339 39.6281 71.1062 38.7875C71.8734 37.9469 72.3301 36.8253 72.3886 35.6382C73.514 35.5714 74.573 35.0341 75.3475 34.137C76.1219 33.2399 76.5527 32.0514 76.5511 30.8165C76.5534 30.182 76.4406 29.5534 76.2193 28.9671C75.9979 28.3808 75.6723 27.8486 75.2615 27.4014Z" fill="#9676B5"/>
<path d="M47.5141 83.0499C47.2592 83.0498 47.0087 82.9771 46.7872 82.8389C46.5657 82.7006 46.3809 82.5015 46.2509 82.2613C45.8142 81.46 45.5991 80.5371 45.6316 79.6044C45.6642 78.6718 45.9431 77.7696 46.4345 77.0072C46.9259 76.2449 47.6087 75.6552 48.4 75.3097C49.1912 74.9643 50.057 74.8778 50.8922 75.061C51.2065 73.9666 51.8763 72.9881 52.8456 72.3604C53.8121 71.7296 54.9048 71.5557 55.9447 71.7778C56.2678 70.6416 56.9552 69.6889 57.8981 69.0773C58.3952 68.7512 58.9465 68.5369 59.5199 68.4468C60.0934 68.3567 60.6775 68.3927 61.2381 68.5527C62.3778 68.8713 63.3384 69.6599 63.9376 70.7671C64.036 70.9493 64.1007 71.151 64.1279 71.3605C64.1552 71.5701 64.1445 71.7835 64.0965 71.9885C64.0485 72.1935 63.9641 72.3862 63.8481 72.5555C63.7322 72.7248 63.5869 72.8674 63.4206 72.9752C63.2544 73.083 63.0704 73.1538 62.8791 73.1837C62.6879 73.2136 62.4931 73.2019 62.306 73.1493C62.1189 73.0967 61.943 73.0042 61.7885 72.8771C61.634 72.7501 61.5039 72.5909 61.4055 72.4087C61.2588 72.1327 61.0402 71.911 60.7777 71.7721C60.5152 71.6331 60.2208 71.5833 59.9323 71.6289C59.6438 71.6746 59.3743 71.8137 59.1584 72.0283C58.9425 72.2429 58.7901 72.5234 58.7206 72.8336C58.6727 73.038 58.6623 73.2508 58.69 73.4597C58.7177 73.6686 58.7831 73.8693 58.8822 74.0503C59.0432 74.4146 59.0735 74.8318 58.9673 75.2194C58.861 75.607 58.6258 75.9368 58.3082 76.1436C57.9907 76.3503 57.6139 76.419 57.2524 76.3359C56.8909 76.2529 56.571 76.0242 56.3559 75.6951C56.1561 75.3285 55.832 75.0634 55.4544 74.9579C55.0768 74.8523 54.6765 74.9149 54.3408 75.1318C54.0063 75.3507 53.7644 75.7059 53.6681 76.1196C53.5717 76.5333 53.6288 76.972 53.8268 77.3398C54.0254 77.7078 54.0826 78.1471 53.9856 78.5612C53.8886 78.9753 53.6455 79.3302 53.3098 79.5479C52.974 79.7656 52.573 79.8282 52.1951 79.722C51.8172 79.6157 51.4933 79.3493 51.2946 78.9814C51.1975 78.7988 51.0679 78.6395 50.9135 78.5129C50.7591 78.3862 50.583 78.2949 50.3958 78.2443C50.1147 78.1665 49.8188 78.1816 49.5456 78.2877C49.2723 78.3938 49.0338 78.5861 48.8601 78.8404C48.6864 79.0948 48.5853 79.3998 48.5695 79.717C48.5537 80.0342 48.6239 80.3494 48.7713 80.623C48.9035 80.8666 48.9745 81.1442 48.9771 81.4276C48.9797 81.711 48.9138 81.9901 48.7861 82.2366C48.6584 82.4831 48.4735 82.6882 48.2501 82.831C48.0267 82.9739 47.7727 83.0494 47.5141 83.0499Z" fill="#499ED7"/>
<path d="M47.9106 82.2652C47.6142 81.7202 47.4189 81.1165 47.3359 80.4886C47.2528 79.8607 47.2837 79.221 47.4267 78.6063C47.5697 77.9915 47.822 77.4137 48.1692 76.9059C48.5163 76.3982 48.9515 75.9706 49.4498 75.6475C49.8963 75.3546 50.384 75.1679 50.8833 75.0649C49.8221 74.8293 48.7187 75.0371 47.7901 75.6475C47.2915 75.9696 46.8561 76.3969 46.5092 76.9046C46.1623 77.4124 45.9108 77.9905 45.7691 78.6055C45.6244 79.2201 45.5925 79.86 45.6752 80.4883C45.7579 81.1165 45.9536 81.7205 46.2509 82.2652C46.4507 82.6309 46.7743 82.8953 47.1511 83.0008C47.528 83.1063 47.9277 83.0444 48.2631 82.8285C48.3013 82.806 48.3189 82.7641 48.3541 82.7384C48.1782 82.6158 48.0272 82.4547 47.9106 82.2652ZM52.9601 78.9789C52.863 78.7963 52.7334 78.637 52.579 78.5103C52.4246 78.3837 52.2485 78.2924 52.0613 78.2418C51.8743 78.1886 51.6795 78.1769 51.4883 78.2073C51.2971 78.2377 51.1134 78.3096 50.948 78.4188C50.9186 78.4381 50.901 78.4703 50.8745 78.4896C51.042 78.6184 51.1918 78.7793 51.2975 78.9789C51.4968 79.3461 51.8209 79.6117 52.1987 79.7173C52.5766 79.8229 52.9772 79.7599 53.3126 79.5421C53.342 79.5228 53.3508 79.4874 53.3802 79.4681C53.2102 79.3394 53.067 79.1727 52.9601 78.9789ZM52.5548 75.0649C52.8691 73.9705 53.5388 72.992 54.5082 72.3643C55.4746 71.7335 56.5674 71.5597 57.6073 71.7817C57.8426 70.9533 58.2795 70.2107 58.8711 69.634C59.4626 69.0572 60.1865 68.668 60.9648 68.5083C59.9071 68.2764 58.8084 68.4828 57.8816 69.0875C56.9547 69.6923 56.2656 70.6523 55.9476 71.7817C54.8844 71.5464 53.7793 71.7542 52.8485 72.3643C51.8791 72.9952 51.2123 73.9673 50.898 75.0616C51.4385 74.949 51.9967 74.9393 52.5548 75.0649ZM58.0185 75.6957C57.8187 75.3292 57.4946 75.0641 57.117 74.9586C56.7394 74.853 56.3391 74.9155 56.0034 75.1325C55.974 75.1518 55.9564 75.184 55.93 75.2065C56.0974 75.3352 56.2443 75.493 56.3559 75.699C56.5551 76.0654 56.8789 76.3303 57.2562 76.4353C57.6335 76.5403 58.0334 76.4769 58.3681 76.259C58.3975 76.2397 58.4063 76.2043 58.4327 76.185C58.2651 76.0553 58.124 75.8886 58.0185 75.6957ZM63.0681 72.4126C62.97 72.2305 62.84 72.0715 62.6856 71.9446C62.5312 71.8178 62.3554 71.7257 62.1684 71.6737C61.9813 71.6216 61.7868 71.6106 61.5958 71.6413C61.4049 71.672 61.2214 71.7438 61.0559 71.8526C61.0265 71.8719 61.0089 71.9041 60.9825 71.9234C61.1499 72.0521 61.2997 72.2131 61.4055 72.4126C61.6047 72.7799 61.9289 73.0455 62.3067 73.1511C62.6845 73.2567 63.0851 73.1937 63.4206 72.9759C63.45 72.9566 63.4646 72.9244 63.494 72.9051C63.3214 72.7764 63.1761 72.6084 63.0681 72.4126Z" fill="#2B8EC6"/>
<path d="M44.0625 20.4131C45.6848 20.4131 47 18.972 47 17.1943C47 15.4167 45.6848 13.9756 44.0625 13.9756C42.4402 13.9756 41.125 15.4167 41.125 17.1943C41.125 18.972 42.4402 20.4131 44.0625 20.4131Z" fill="#AE89BE"/>
<path d="M67.5625 20.4131C69.1848 20.4131 70.5 18.972 70.5 17.1943C70.5 15.4167 69.1848 13.9756 67.5625 13.9756C65.9402 13.9756 64.625 15.4167 64.625 17.1943C64.625 18.972 65.9402 20.4131 67.5625 20.4131Z" fill="#499ED7"/>
<path d="M79.3125 52.6006C80.9348 52.6006 82.25 51.1595 82.25 49.3818C82.25 47.6042 80.9348 46.1631 79.3125 46.1631C77.6902 46.1631 76.375 47.6042 76.375 49.3818C76.375 51.1595 77.6902 52.6006 79.3125 52.6006Z" fill="#FFCC5C"/>
<path d="M11.75 65.4756C13.3723 65.4756 14.6875 64.0345 14.6875 62.2568C14.6875 60.4792 13.3723 59.0381 11.75 59.0381C10.1277 59.0381 8.8125 60.4792 8.8125 62.2568C8.8125 64.0345 10.1277 65.4756 11.75 65.4756Z" fill="#F04C4D"/>
<path d="M44.0625 13.9756C43.6843 13.9784 43.3102 14.0614 42.9609 14.2202C43.5013 14.4602 43.964 14.8714 44.2898 15.4013C44.6156 15.9311 44.7896 16.5555 44.7896 17.1943C44.7896 17.8332 44.6156 18.4576 44.2898 18.9874C43.964 19.5173 43.5013 19.9285 42.9609 20.1685C43.3102 20.3272 43.6843 20.4103 44.0625 20.4131C44.8416 20.4131 45.5887 20.074 46.1396 19.4703C46.6905 18.8667 47 18.048 47 17.1943C47 16.3407 46.6905 15.522 46.1396 14.9183C45.5887 14.3147 44.8416 13.9756 44.0625 13.9756Z" fill="#9676B5"/>
<path d="M67.5625 13.9756C67.1843 13.9784 66.8102 14.0614 66.4609 14.2202C67.0013 14.4602 67.464 14.8714 67.7898 15.4013C68.1156 15.9311 68.2896 16.5555 68.2896 17.1943C68.2896 17.8332 68.1156 18.4576 67.7898 18.9874C67.464 19.5173 67.0013 19.9285 66.4609 20.1685C66.8102 20.3272 67.1843 20.4103 67.5625 20.4131C68.3416 20.4131 69.0887 20.074 69.6396 19.4703C70.1905 18.8667 70.5 18.048 70.5 17.1943C70.5 16.3407 70.1905 15.522 69.6396 14.9183C69.0887 14.3147 68.3416 13.9756 67.5625 13.9756Z" fill="#2B8EC6"/>
<path d="M79.3125 46.1631C78.9343 46.1659 78.5602 46.2489 78.2109 46.4077C78.7513 46.6477 79.214 47.0589 79.5398 47.5888C79.8656 48.1186 80.0396 48.743 80.0396 49.3818C80.0396 50.0207 79.8656 50.6451 79.5398 51.1749C79.214 51.7048 78.7513 52.116 78.2109 52.356C78.5602 52.5148 78.9343 52.5978 79.3125 52.6006C80.0916 52.6006 80.8387 52.2615 81.3896 51.6578C81.9405 51.0542 82.25 50.2355 82.25 49.3818C82.25 48.5282 81.9405 47.7095 81.3896 47.1058C80.8387 46.5022 80.0916 46.1631 79.3125 46.1631Z" fill="#F7B546"/>
<path d="M11.75 59.0381C11.3718 59.0409 10.9977 59.1239 10.6484 59.2827C11.1888 59.5227 11.6515 59.9339 11.9773 60.4638C12.3031 60.9936 12.4771 61.618 12.4771 62.2568C12.4771 62.8957 12.3031 63.5201 11.9773 64.0499C11.6515 64.5798 11.1888 64.991 10.6484 65.231C10.9977 65.3897 11.3718 65.4728 11.75 65.4756C12.5291 65.4756 13.2762 65.1365 13.8271 64.5328C14.378 63.9292 14.6875 63.1105 14.6875 62.2568C14.6875 61.4032 14.378 60.5845 13.8271 59.9808C13.2762 59.3772 12.5291 59.0381 11.75 59.0381Z" fill="#E13340"/>
<path d="M70.5 84.7881C72.1223 84.7881 73.4375 83.347 73.4375 81.5693C73.4375 79.7917 72.1223 78.3506 70.5 78.3506C68.8777 78.3506 67.5625 79.7917 67.5625 81.5693C67.5625 83.347 68.8777 84.7881 70.5 84.7881Z" fill="#F04C4D"/>
<path d="M70.5 78.3506C70.1218 78.3534 69.7477 78.4364 69.3984 78.5952C69.9388 78.8352 70.4015 79.2464 70.7273 79.7763C71.0531 80.3061 71.2271 80.9305 71.2271 81.5693C71.2271 82.2082 71.0531 82.8326 70.7273 83.3624C70.4015 83.8923 69.9388 84.3035 69.3984 84.5435C69.7477 84.7023 70.1218 84.7853 70.5 84.7881C71.2791 84.7881 72.0262 84.449 72.5771 83.8453C73.128 83.2417 73.4375 82.423 73.4375 81.5693C73.4375 80.7157 73.128 79.897 72.5771 79.2933C72.0262 78.6897 71.2791 78.3506 70.5 78.3506Z" fill="#E13340"/>
<path d="M77.612 70.4256C77.263 70.4251 76.9256 70.2884 76.6603 70.0401C76.3949 69.7918 76.2189 69.4481 76.1638 69.0705C76.0113 68.0226 75.7704 66.9925 75.4441 65.9934C75.3148 65.5905 75.3368 65.1478 75.5054 64.7626C75.674 64.3775 75.9752 64.0816 76.343 63.9399C76.7107 63.7981 77.1147 63.8223 77.4662 64.007C77.8177 64.1917 78.0878 64.5219 78.2171 64.9248C78.596 66.1078 78.8801 67.3248 79.066 68.562C79.0991 68.7922 79.0863 69.0275 79.0285 69.2517C78.9706 69.476 78.8691 69.6838 78.7309 69.8609C78.5927 70.0381 78.4211 70.1803 78.2279 70.2777C78.0348 70.3752 77.8246 70.4257 77.612 70.4256Z" fill="#F04C4D"/>
<path d="M35.297 23.7639C34.9361 23.7645 34.5877 23.6189 34.3188 23.3551C33.9169 22.9625 33.4983 22.5909 33.0645 22.2414C32.7631 21.9832 32.5656 21.6063 32.5139 21.1909C32.4623 20.7755 32.5606 20.3545 32.7879 20.0173C33.0153 19.6801 33.3537 19.4535 33.7312 19.3855C34.1087 19.3176 34.4956 19.4138 34.8094 19.6535C35.3164 20.0638 35.8055 20.4999 36.2752 20.9604C36.495 21.178 36.6497 21.4634 36.7188 21.7791C36.7879 22.0948 36.7683 22.426 36.6625 22.7293C36.5567 23.0325 36.3696 23.2936 36.1259 23.4782C35.8822 23.6629 35.5933 23.7625 35.297 23.7639Z" fill="#499ED7"/>
<path d="M49.3323 47.8245C49.0445 47.8252 48.7629 47.7333 48.5224 47.5601C48.282 47.3869 48.0932 47.1401 47.9796 46.8504C47.866 46.5607 47.8326 46.2407 47.8835 45.9304C47.9344 45.62 48.0674 45.3329 48.266 45.1047C52.1752 40.6222 54.3518 34.6574 54.3408 28.4573C54.3408 24.8105 53.5682 21.1507 52.1112 17.8773C52.017 17.6864 51.959 17.4766 51.9407 17.2605C51.9224 17.0444 51.9442 16.8265 52.0047 16.6198C52.0653 16.4132 52.1633 16.2221 52.293 16.0581C52.4227 15.8941 52.5813 15.7605 52.7593 15.6653C52.9373 15.5702 53.131 15.5155 53.3289 15.5045C53.5267 15.4935 53.7244 15.5265 53.9103 15.6014C54.0962 15.6763 54.2663 15.7917 54.4104 15.9405C54.5546 16.0894 54.6698 16.2686 54.7491 16.4675C56.4079 20.2044 57.2717 24.3049 57.2753 28.4605C57.2873 35.4868 54.8202 42.2461 50.3898 47.3256C50.2544 47.484 50.0905 47.6101 49.9086 47.696C49.7266 47.7818 49.5304 47.8256 49.3323 47.8245Z" fill="#92CA62"/>
<path d="M23.5 47.7725C24.3112 47.7725 24.9688 47.0519 24.9688 46.1631C24.9688 45.2743 24.3112 44.5537 23.5 44.5537C22.6888 44.5537 22.0312 45.2743 22.0312 46.1631C22.0312 47.0519 22.6888 47.7725 23.5 47.7725Z" fill="#92CA62"/>
<path d="M221.536 60.7794C221.745 60.7796 221.952 60.7309 222.142 60.6365C222.333 60.5422 222.503 60.4043 222.641 60.2322C224.157 58.3399 226.025 56.8237 228.118 55.7847C230.212 54.7456 232.483 54.2077 234.782 54.2067C238.218 54.2067 241.635 55.4427 244.396 57.6862C244.551 57.812 244.727 57.9031 244.914 57.9543C245.101 58.0055 245.295 58.0159 245.486 57.9848C245.677 57.9537 245.86 57.8818 246.025 57.7731C246.19 57.6645 246.334 57.5212 246.449 57.3515C246.564 57.1818 246.647 56.9889 246.694 56.784C246.741 56.5791 246.75 56.3661 246.722 56.1572C246.693 55.9483 246.628 55.7475 246.529 55.5664C246.429 55.3853 246.299 55.2273 246.144 55.1016C242.851 52.442 238.869 51.0022 234.779 50.9912C229.285 50.9912 224.057 53.5855 220.429 58.1079C220.244 58.3411 220.123 58.6278 220.083 58.9338C220.042 59.2398 220.082 59.5522 220.199 59.8337C220.316 60.1153 220.504 60.3541 220.741 60.5218C220.978 60.6895 221.254 60.7789 221.536 60.7794Z" fill="#F04C4D"/>
<path d="M255.646 46.5471C255.895 46.5471 256.14 46.4778 256.358 46.3458C256.575 46.2138 256.759 46.0234 256.891 45.7924C257.023 45.5614 257.1 45.2973 257.113 45.0251C257.127 44.7529 257.077 44.4814 256.968 44.236C255.902 41.8271 255.347 39.1851 255.344 36.5078C255.344 33.4049 256.093 30.3407 257.506 27.6562C257.604 27.4731 257.668 27.2706 257.694 27.0603C257.72 26.85 257.708 26.6361 257.659 26.4309C257.609 26.2257 257.523 26.0333 257.406 25.8647C257.288 25.6961 257.141 25.5547 256.973 25.4485C256.805 25.3424 256.62 25.2737 256.428 25.2463C256.236 25.219 256.041 25.2335 255.854 25.2891C255.667 25.3447 255.492 25.4403 255.339 25.5704C255.186 25.7004 255.058 25.8623 254.962 26.0468C253.404 29.0078 252.531 32.3415 252.419 35.7571C252.307 39.1728 252.959 42.5666 254.319 45.6426C254.441 45.9143 254.63 46.1431 254.864 46.303C255.099 46.4629 255.37 46.5474 255.646 46.5471Z" fill="#499ED7"/>
<path d="M280.847 83.2014L262.033 43.8458C261.819 43.3985 261.512 43.0126 261.137 42.7193C260.762 42.426 260.329 42.2336 259.873 42.1574C259.418 42.0813 258.952 42.1236 258.515 42.281C258.077 42.4385 257.679 42.7065 257.353 43.0636L242.234 59.6305C241.908 59.9875 241.663 60.4235 241.52 60.9032C241.376 61.3829 241.337 61.893 241.407 62.3921C241.476 62.8913 241.652 63.3655 241.92 63.7765C242.187 64.1875 242.539 64.5237 242.948 64.758L278.864 85.3741C279.142 85.5334 279.458 85.5914 279.768 85.5397C280.077 85.488 280.364 85.3293 280.585 85.0867C280.806 84.8441 280.951 84.5304 280.998 84.1912C281.045 83.8521 280.993 83.5053 280.847 83.2014Z" fill="#FFCC5C"/>
<path d="M242.234 59.6305L257.353 43.0636C257.679 42.7065 258.077 42.4385 258.515 42.281C258.952 42.1236 259.418 42.0813 259.873 42.1574C260.329 42.2336 260.762 42.426 261.137 42.7193C261.512 43.0126 261.819 43.3985 262.033 43.8458L262.197 44.1934L256.695 50.2221C255.718 51.2931 254.984 52.601 254.553 54.0402C254.122 55.4794 254.006 57.0096 254.214 58.507C254.423 60.0044 254.95 61.427 255.753 62.66C256.556 63.8929 257.612 64.9016 258.837 65.6045L277.572 76.3583L280.844 83.2014C280.99 83.5053 281.043 83.8521 280.995 84.1912C280.948 84.5304 280.803 84.8441 280.582 85.0867C280.361 85.3293 280.074 85.488 279.765 85.5397C279.455 85.5914 279.139 85.5334 278.861 85.3741L242.945 64.758C242.537 64.5234 242.185 64.1869 241.917 63.7758C241.65 63.3647 241.475 62.8904 241.406 62.3913C241.336 61.8922 241.375 61.3822 241.519 60.9026C241.663 60.423 241.908 59.9873 242.234 59.6305Z" fill="#F7B546"/>
<path d="M271.706 81.2636L268.025 79.1521L277.381 75.9494L278.765 78.8463L271.706 81.2636ZM275.084 71.1438L261.924 75.6501L258.243 73.5386L273.698 68.247L275.084 71.1438ZM271.403 63.4414L252.145 70.0366L248.464 67.9251L270.017 60.5445L271.403 63.4414ZM267.72 55.7421L242.537 64.3652C242.127 64.0161 241.812 63.5517 241.625 63.0215C241.439 62.4914 241.387 61.9155 241.476 61.3556L266.333 52.8452L267.72 55.7421ZM264.039 48.0429L247.707 53.6338L252.183 48.7317L262.655 45.146L264.039 48.0429Z" fill="#F47423"/>
<path d="M241.479 61.3559L254.163 57.0138C254.16 58.1082 254.313 59.1897 254.639 60.2229L242.537 64.3655C242.125 64.005 241.832 63.5543 241.646 63.0619L241.605 62.9492C241.44 62.4386 241.396 61.8901 241.479 61.3559ZM258.243 73.5389L267.276 70.4457L270.957 72.5572L261.924 75.6504L261.066 75.1579L258.243 73.5389ZM256.698 50.2223C256.572 50.3607 256.496 50.5216 256.381 50.6665L247.709 53.6374L252.186 48.732L260.731 45.8062L256.698 50.2223ZM278.765 78.8466L271.706 81.2639L268.025 79.1524L277.058 76.0592L277.575 76.3585L278.765 78.8466ZM258.84 65.6047L261.175 66.9469L252.142 70.0401L248.461 67.9286L257.715 64.7614C258.082 65.0511 258.425 65.3665 258.84 65.6047Z" fill="#ED5D25"/>
<path d="M271.5 41.335C272.349 41.3316 273.179 41.0597 273.891 40.5519C274.603 40.0442 275.166 39.3222 275.512 38.4726C275.858 37.623 275.974 36.6819 275.844 35.7623C275.714 34.8426 275.345 33.9835 274.781 33.2881C275.507 32.4048 275.909 31.2582 275.909 30.0693C275.909 28.8805 275.507 27.7338 274.781 26.8506C275.345 26.1552 275.714 25.2961 275.844 24.3764C275.974 23.4568 275.858 22.5157 275.512 21.6661C275.166 20.8165 274.603 20.0945 273.891 19.5867C273.179 19.079 272.349 18.8071 271.5 18.8037C271.11 18.8037 270.737 18.9733 270.461 19.2751C270.186 19.5769 270.031 19.9863 270.031 20.4131C270.031 20.8399 270.186 21.2493 270.461 21.5511C270.737 21.8529 271.11 22.0225 271.5 22.0225C271.889 22.0225 272.263 22.192 272.538 22.4938C272.814 22.7957 272.969 23.205 272.969 23.6318C272.969 24.0587 272.814 24.468 272.538 24.7698C272.263 25.0717 271.889 25.2412 271.5 25.2412C271.11 25.2412 270.737 25.4108 270.461 25.7126C270.186 26.0144 270.031 26.4238 270.031 26.8506C270.031 27.2774 270.186 27.6868 270.461 27.9886C270.737 28.2904 271.11 28.46 271.5 28.46C271.889 28.46 272.263 28.6295 272.538 28.9313C272.814 29.2332 272.969 29.6425 272.969 30.0693C272.969 30.4962 272.814 30.9055 272.538 31.2073C272.263 31.5092 271.889 31.6787 271.5 31.6787C271.11 31.6787 270.737 31.8483 270.461 32.1501C270.186 32.4519 270.031 32.8613 270.031 33.2881C270.031 33.7149 270.186 34.1243 270.461 34.4261C270.737 34.7279 271.11 34.8975 271.5 34.8975C271.889 34.8975 272.263 35.067 272.538 35.3688C272.814 35.6707 272.969 36.08 272.969 36.5068C272.969 36.9337 272.814 37.343 272.538 37.6448C272.263 37.9467 271.889 38.1162 271.5 38.1162C271.11 38.1162 270.737 38.2858 270.461 38.5876C270.186 38.8894 270.031 39.2988 270.031 39.7256C270.031 40.1524 270.186 40.5618 270.461 40.8636C270.737 41.1654 271.11 41.335 271.5 41.335Z" fill="#92CA62"/>
<path d="M271.403 28.4379C271.12 28.4184 270.848 28.3078 270.621 28.1201C270.394 27.9324 270.223 27.6757 270.129 27.3821C270.412 27.4029 270.683 27.5138 270.91 27.7014C271.136 27.889 271.308 28.1449 271.403 28.4379ZM270.129 20.9446C270.412 20.9654 270.683 21.0763 270.91 21.2639C271.136 21.4515 271.308 21.7074 271.403 22.0004C271.12 21.9809 270.848 21.8704 270.621 21.6826C270.394 21.4949 270.223 21.2382 270.129 20.9446ZM274.438 35.4065C274.438 34.1705 274.012 33.0439 273.313 32.1877C274.039 31.3045 274.441 30.1578 274.441 28.969C274.441 27.7801 274.039 26.6335 273.313 25.7502C274.058 24.8416 274.46 23.6562 274.436 22.4349C274.413 21.2136 273.966 20.0478 273.187 19.1743C273.836 19.4705 274.411 19.9325 274.864 20.5218C275.317 21.1111 275.635 21.8106 275.791 22.5619C275.947 23.3132 275.937 24.0946 275.761 24.8407C275.586 25.5868 275.25 26.2761 274.782 26.851C275.508 27.7339 275.911 28.8808 275.911 30.0698C275.911 31.2588 275.508 32.4056 274.782 33.2885C275.346 33.984 275.715 34.8431 275.845 35.7627C275.974 36.6823 275.859 37.6235 275.513 38.4731C275.166 39.3227 274.603 40.0447 273.892 40.5524C273.18 41.0601 272.35 41.332 271.5 41.3354C271.193 41.3336 270.894 41.2251 270.647 41.0256C270.399 40.8261 270.216 40.5458 270.123 40.2249C271.274 40.1989 272.37 39.68 273.177 38.7795C273.983 37.8789 274.436 36.6682 274.438 35.4065Z" fill="#71BC58"/>
<path d="M271.403 34.8746C271.12 34.8545 270.848 34.7437 270.622 34.556C270.396 34.3683 270.225 34.112 270.131 33.8188C270.414 33.8398 270.685 33.9509 270.911 34.1385C271.137 34.326 271.308 34.5819 271.403 34.8746Z" fill="#71BC58"/>
<path d="M231.162 44.7438C232.29 44.7438 233.418 44.2739 234.279 43.334C234.555 43.0322 234.71 42.6228 234.71 42.1957C234.71 41.7686 234.556 41.3589 234.28 41.0567C234.005 40.7545 233.631 40.5846 233.241 40.5843C232.852 40.584 232.478 40.7534 232.202 41.0551C232.065 41.2045 231.903 41.323 231.725 41.4038C231.547 41.4846 231.355 41.5261 231.162 41.526C230.97 41.5258 230.778 41.484 230.6 41.4029C230.422 41.3219 230.26 41.2032 230.124 41.0535C229.987 40.9039 229.879 40.7263 229.805 40.5309C229.732 40.3354 229.694 40.126 229.694 39.9145C229.694 39.7031 229.732 39.4937 229.806 39.2984C229.88 39.1031 229.989 38.9257 230.125 38.7763C230.263 38.6272 230.372 38.4497 230.446 38.2542C230.521 38.0586 230.559 37.8487 230.559 37.6368C230.559 37.4249 230.521 37.2151 230.446 37.0195C230.372 36.8239 230.263 36.6464 230.125 36.4974C229.552 35.8697 228.621 35.8697 228.048 36.4974C227.771 36.7905 227.4 36.9528 227.015 36.9491C226.63 36.9454 226.262 36.7762 225.989 36.4778C225.717 36.1794 225.563 35.7757 225.559 35.3538C225.556 34.9318 225.704 34.5253 225.971 34.2217C226.109 34.0727 226.218 33.8952 226.293 33.6996C226.367 33.504 226.405 33.2942 226.405 33.0823C226.405 32.8704 226.367 32.6605 226.293 32.4649C226.218 32.2694 226.109 32.0919 225.971 31.9428C225.696 31.6411 225.323 31.4716 224.933 31.4716C224.544 31.4716 224.17 31.6411 223.895 31.9428C223.614 32.234 223.243 32.3962 222.856 32.3962C222.47 32.3962 222.098 32.234 221.818 31.9428C221.681 31.7936 221.572 31.616 221.499 31.4204C221.425 31.2248 221.388 31.015 221.389 30.8034C221.388 30.5923 221.426 30.3832 221.499 30.1881C221.573 29.9931 221.681 29.816 221.818 29.6672C221.954 29.5178 222.063 29.3403 222.137 29.145C222.211 28.9497 222.249 28.7404 222.249 28.5289C222.249 28.3174 222.211 28.108 222.138 27.9126C222.064 27.7172 221.956 27.5396 221.819 27.3899C221.683 27.2403 221.521 27.1216 221.343 27.0405C221.165 26.9594 220.973 26.9176 220.781 26.9175C220.588 26.9173 220.396 26.9588 220.218 27.0396C220.04 27.1204 219.878 27.2389 219.741 27.3883C218.91 28.2992 218.451 29.5127 218.451 30.8034C218.451 32.0381 218.882 33.2261 219.656 34.1231C220.43 35.02 221.489 35.5576 222.614 35.6251C222.671 36.8127 223.127 37.9351 223.895 38.776C224.662 39.6169 225.687 40.1169 226.77 40.1796C226.829 41.3255 227.255 42.4553 228.054 43.3276C228.903 44.2739 230.034 44.7438 231.162 44.7438Z" fill="#AE89BE"/>
<path d="M229.641 36.5068C229.401 36.7648 229.086 36.9234 228.752 36.9557C228.417 36.988 228.082 36.8919 227.805 36.6838C227.884 36.6259 227.975 36.5873 228.046 36.5068C228.285 36.2489 228.6 36.0902 228.935 36.0579C229.269 36.0256 229.604 36.1217 229.881 36.3298C229.802 36.3877 229.711 36.4296 229.641 36.5068ZM225.487 31.9555C225.243 32.206 224.929 32.3592 224.596 32.3901C224.263 32.4211 223.93 32.3281 223.651 32.1261C223.733 32.0682 223.821 32.0328 223.892 31.9555C224.132 31.6976 224.446 31.5389 224.781 31.5066C225.116 31.4743 225.45 31.5704 225.728 31.7785C225.649 31.8364 225.557 31.8783 225.487 31.9555ZM233.794 41.0581C233.554 41.3161 233.24 41.4747 232.905 41.507C232.57 41.5393 232.236 41.4432 231.958 41.2352C232.038 41.1772 232.129 41.1386 232.199 41.0581C232.44 40.8012 232.754 40.6435 233.089 40.6119C233.423 40.5802 233.758 40.6764 234.035 40.8843C233.956 40.9423 233.865 40.9809 233.794 41.0581Z" fill="#9676B5"/>
<path d="M219.738 27.4014C219.979 27.1445 220.293 26.9868 220.628 26.9551C220.963 26.9234 221.297 27.0197 221.574 27.2276C221.495 27.2855 221.404 27.3242 221.333 27.4014C220.502 28.3123 220.044 29.5258 220.044 30.8165C220.043 32.0512 220.474 33.2392 221.248 34.1362C222.023 35.0331 223.081 35.5707 224.206 35.6382C224.264 36.8258 224.72 37.9481 225.487 38.7891C226.255 39.63 227.279 40.13 228.363 40.1927C228.422 41.3386 228.848 42.4684 229.647 43.3407C230.299 44.0552 231.118 44.4093 231.964 44.5799C231.697 44.6346 231.438 44.7505 231.168 44.7505C230.042 44.7531 228.957 44.2818 228.138 43.4337C227.319 42.5856 226.829 41.4255 226.768 40.1927C225.684 40.1286 224.661 39.6281 223.894 38.7875C223.127 37.9469 222.67 36.8253 222.611 35.6382C221.486 35.5714 220.427 35.0341 219.652 34.137C218.878 33.2399 218.447 32.0514 218.449 30.8165C218.447 30.182 218.559 29.5534 218.781 28.9671C219.002 28.3808 219.328 27.8486 219.738 27.4014Z" fill="#9676B5"/>
<path d="M247.486 83.0499C247.741 83.0498 247.991 82.9771 248.213 82.8389C248.434 82.7006 248.619 82.5015 248.749 82.2613C249.186 81.46 249.401 80.5371 249.368 79.6044C249.336 78.6718 249.057 77.7696 248.565 77.0072C248.074 76.2449 247.391 75.6552 246.6 75.3097C245.809 74.9643 244.943 74.8778 244.108 75.061C243.793 73.9666 243.124 72.9881 242.154 72.3604C241.188 71.7296 240.095 71.5557 239.055 71.7778C238.732 70.6416 238.045 69.6889 237.102 69.0773C236.605 68.7512 236.053 68.5369 235.48 68.4468C234.907 68.3567 234.322 68.3927 233.762 68.5527C232.622 68.8713 231.662 69.6599 231.062 70.7671C230.964 70.9493 230.899 71.151 230.872 71.3605C230.845 71.5701 230.855 71.7835 230.903 71.9885C230.951 72.1935 231.036 72.3862 231.152 72.5555C231.268 72.7248 231.413 72.8674 231.579 72.9752C231.746 73.083 231.93 73.1538 232.121 73.1837C232.312 73.2136 232.507 73.2019 232.694 73.1493C232.881 73.0967 233.057 73.0042 233.211 72.8771C233.366 72.7501 233.496 72.5909 233.594 72.4087C233.741 72.1327 233.96 71.911 234.222 71.7721C234.485 71.6331 234.779 71.5833 235.068 71.6289C235.356 71.6746 235.626 71.8137 235.842 72.0283C236.057 72.2429 236.21 72.5234 236.279 72.8336C236.327 73.038 236.338 73.2508 236.31 73.4597C236.282 73.6686 236.217 73.8693 236.118 74.0503C235.957 74.4146 235.926 74.8318 236.033 75.2194C236.139 75.607 236.374 75.9368 236.692 76.1436C237.009 76.3503 237.386 76.419 237.748 76.3359C238.109 76.2529 238.429 76.0242 238.644 75.6951C238.844 75.3285 239.168 75.0634 239.546 74.9579C239.923 74.8523 240.323 74.9149 240.659 75.1318C240.994 75.3507 241.236 75.7059 241.332 76.1196C241.428 76.5333 241.371 76.972 241.173 77.3398C240.975 77.7078 240.917 78.1471 241.014 78.5612C241.111 78.9753 241.354 79.3302 241.69 79.5479C242.026 79.7656 242.427 79.8282 242.805 79.722C243.183 79.6157 243.507 79.3493 243.705 78.9814C243.802 78.7988 243.932 78.6395 244.086 78.5129C244.241 78.3862 244.417 78.2949 244.604 78.2443C244.885 78.1665 245.181 78.1816 245.454 78.2877C245.728 78.3938 245.966 78.5861 246.14 78.8404C246.314 79.0948 246.415 79.3998 246.43 79.717C246.446 80.0342 246.376 80.3494 246.229 80.623C246.096 80.8666 246.025 81.1442 246.023 81.4276C246.02 81.711 246.086 81.9901 246.214 82.2366C246.342 82.4831 246.526 82.6882 246.75 82.831C246.973 82.9739 247.227 83.0494 247.486 83.0499Z" fill="#499ED7"/>
<path d="M247.089 82.2652C247.386 81.7202 247.581 81.1165 247.664 80.4886C247.747 79.8607 247.716 79.221 247.573 78.6063C247.43 77.9915 247.178 77.4137 246.831 76.9059C246.484 76.3982 246.048 75.9706 245.55 75.6475C245.104 75.3546 244.616 75.1679 244.117 75.0649C245.178 74.8293 246.281 75.0371 247.21 75.6475C247.708 75.9696 248.144 76.3969 248.491 76.9046C248.838 77.4124 249.089 77.9905 249.231 78.6055C249.376 79.2201 249.407 79.86 249.325 80.4883C249.242 81.1165 249.046 81.7205 248.749 82.2652C248.549 82.6309 248.226 82.8953 247.849 83.0008C247.472 83.1063 247.072 83.0444 246.737 82.8285C246.699 82.806 246.681 82.7641 246.646 82.7384C246.822 82.6158 246.973 82.4547 247.089 82.2652ZM242.04 78.9789C242.137 78.7963 242.267 78.637 242.421 78.5103C242.575 78.3837 242.751 78.2924 242.939 78.2418C243.126 78.1886 243.32 78.1769 243.512 78.2073C243.703 78.2377 243.887 78.3096 244.052 78.4188C244.081 78.4381 244.099 78.4703 244.125 78.4896C243.958 78.6184 243.808 78.7793 243.702 78.9789C243.503 79.3461 243.179 79.6117 242.801 79.7173C242.423 79.8229 242.023 79.7599 241.687 79.5421C241.658 79.5228 241.649 79.4874 241.62 79.4681C241.79 79.3394 241.933 79.1727 242.04 78.9789ZM242.445 75.0649C242.131 73.9705 241.461 72.992 240.492 72.3643C239.525 71.7335 238.433 71.5597 237.393 71.7817C237.157 70.9533 236.72 70.2107 236.129 69.634C235.537 69.0572 234.813 68.668 234.035 68.5083C235.093 68.2764 236.192 68.4828 237.118 69.0875C238.045 69.6923 238.734 70.6523 239.052 71.7817C240.116 71.5464 241.221 71.7542 242.151 72.3643C243.121 72.9952 243.788 73.9673 244.102 75.0616C243.561 74.949 243.003 74.9393 242.445 75.0649ZM236.981 75.6957C237.181 75.3292 237.505 75.0641 237.883 74.9586C238.261 74.853 238.661 74.9155 238.997 75.1325C239.026 75.1518 239.044 75.184 239.07 75.2065C238.903 75.3352 238.756 75.493 238.644 75.699C238.445 76.0654 238.121 76.3303 237.744 76.4353C237.366 76.5403 236.967 76.4769 236.632 76.259C236.602 76.2397 236.594 76.2043 236.567 76.185C236.735 76.0553 236.876 75.8886 236.981 75.6957ZM231.932 72.4126C232.03 72.2305 232.16 72.0715 232.314 71.9446C232.469 71.8178 232.645 71.7257 232.832 71.6737C233.019 71.6216 233.213 71.6106 233.404 71.6413C233.595 71.672 233.779 71.7438 233.944 71.8526C233.973 71.8719 233.991 71.9041 234.017 71.9234C233.85 72.0521 233.7 72.2131 233.594 72.4126C233.395 72.7799 233.071 73.0455 232.693 73.1511C232.315 73.2567 231.915 73.1937 231.579 72.9759C231.55 72.9566 231.535 72.9244 231.506 72.9051C231.679 72.7764 231.824 72.6084 231.932 72.4126Z" fill="#2B8EC6"/>
<path d="M250.938 20.4131C249.315 20.4131 248 18.972 248 17.1943C248 15.4167 249.315 13.9756 250.938 13.9756C252.56 13.9756 253.875 15.4167 253.875 17.1943C253.875 18.972 252.56 20.4131 250.938 20.4131Z" fill="#AE89BE"/>
<path d="M227.438 20.4131C225.815 20.4131 224.5 18.972 224.5 17.1943C224.5 15.4167 225.815 13.9756 227.438 13.9756C229.06 13.9756 230.375 15.4167 230.375 17.1943C230.375 18.972 229.06 20.4131 227.438 20.4131Z" fill="#499ED7"/>
<path d="M215.688 52.6006C214.065 52.6006 212.75 51.1595 212.75 49.3818C212.75 47.6042 214.065 46.1631 215.688 46.1631C217.31 46.1631 218.625 47.6042 218.625 49.3818C218.625 51.1595 217.31 52.6006 215.688 52.6006Z" fill="#FFCC5C"/>
<path d="M283.25 65.4756C281.628 65.4756 280.312 64.0345 280.312 62.2568C280.312 60.4792 281.628 59.0381 283.25 59.0381C284.872 59.0381 286.188 60.4792 286.188 62.2568C286.188 64.0345 284.872 65.4756 283.25 65.4756Z" fill="#F04C4D"/>
<path d="M250.937 13.9756C251.316 13.9784 251.69 14.0614 252.039 14.2202C251.499 14.4602 251.036 14.8714 250.71 15.4013C250.384 15.9311 250.21 16.5555 250.21 17.1943C250.21 17.8332 250.384 18.4576 250.71 18.9874C251.036 19.5173 251.499 19.9285 252.039 20.1685C251.69 20.3272 251.316 20.4103 250.937 20.4131C250.158 20.4131 249.411 20.074 248.86 19.4703C248.309 18.8667 248 18.048 248 17.1943C248 16.3407 248.309 15.522 248.86 14.9183C249.411 14.3147 250.158 13.9756 250.937 13.9756Z" fill="#9676B5"/>
<path d="M227.437 13.9756C227.816 13.9784 228.19 14.0614 228.539 14.2202C227.999 14.4602 227.536 14.8714 227.21 15.4013C226.884 15.9311 226.71 16.5555 226.71 17.1943C226.71 17.8332 226.884 18.4576 227.21 18.9874C227.536 19.5173 227.999 19.9285 228.539 20.1685C228.19 20.3272 227.816 20.4103 227.437 20.4131C226.658 20.4131 225.911 20.074 225.36 19.4703C224.809 18.8667 224.5 18.048 224.5 17.1943C224.5 16.3407 224.809 15.522 225.36 14.9183C225.911 14.3147 226.658 13.9756 227.437 13.9756Z" fill="#2B8EC6"/>
<path d="M215.687 46.1631C216.066 46.1659 216.44 46.2489 216.789 46.4077C216.249 46.6477 215.786 47.0589 215.46 47.5888C215.134 48.1186 214.96 48.743 214.96 49.3818C214.96 50.0207 215.134 50.6451 215.46 51.1749C215.786 51.7048 216.249 52.116 216.789 52.356C216.44 52.5148 216.066 52.5978 215.687 52.6006C214.908 52.6006 214.161 52.2615 213.61 51.6578C213.059 51.0542 212.75 50.2355 212.75 49.3818C212.75 48.5282 213.059 47.7095 213.61 47.1058C214.161 46.5022 214.908 46.1631 215.687 46.1631Z" fill="#F7B546"/>
<path d="M283.25 59.0381C283.628 59.0409 284.002 59.1239 284.352 59.2827C283.811 59.5227 283.348 59.9339 283.023 60.4638C282.697 60.9936 282.523 61.618 282.523 62.2568C282.523 62.8957 282.697 63.5201 283.023 64.0499C283.348 64.5798 283.811 64.991 284.352 65.231C284.002 65.3897 283.628 65.4728 283.25 65.4756C282.471 65.4756 281.724 65.1365 281.173 64.5328C280.622 63.9292 280.312 63.1105 280.312 62.2568C280.312 61.4032 280.622 60.5845 281.173 59.9808C281.724 59.3772 282.471 59.0381 283.25 59.0381Z" fill="#E13340"/>
<path d="M224.5 84.7881C222.878 84.7881 221.562 83.347 221.562 81.5693C221.562 79.7917 222.878 78.3506 224.5 78.3506C226.122 78.3506 227.438 79.7917 227.438 81.5693C227.438 83.347 226.122 84.7881 224.5 84.7881Z" fill="#F04C4D"/>
<path d="M224.5 78.3506C224.878 78.3534 225.252 78.4364 225.602 78.5952C225.061 78.8352 224.598 79.2464 224.273 79.7763C223.947 80.3061 223.773 80.9305 223.773 81.5693C223.773 82.2082 223.947 82.8326 224.273 83.3624C224.598 83.8923 225.061 84.3035 225.602 84.5435C225.252 84.7023 224.878 84.7853 224.5 84.7881C223.721 84.7881 222.974 84.449 222.423 83.8453C221.872 83.2417 221.562 82.423 221.562 81.5693C221.562 80.7157 221.872 79.897 222.423 79.2933C222.974 78.6897 223.721 78.3506 224.5 78.3506Z" fill="#E13340"/>
<path d="M217.388 70.4256C217.737 70.4251 218.074 70.2884 218.34 70.0401C218.605 69.7918 218.781 69.4481 218.836 69.0705C218.989 68.0226 219.23 66.9925 219.556 65.9934C219.685 65.5905 219.663 65.1478 219.495 64.7626C219.326 64.3775 219.025 64.0816 218.657 63.9399C218.289 63.7981 217.885 63.8223 217.534 64.007C217.182 64.1917 216.912 64.5219 216.783 64.9248C216.404 66.1078 216.12 67.3248 215.934 68.562C215.901 68.7922 215.914 69.0275 215.972 69.2517C216.029 69.476 216.131 69.6838 216.269 69.8609C216.407 70.0381 216.579 70.1803 216.772 70.2777C216.965 70.3752 217.175 70.4257 217.388 70.4256Z" fill="#F04C4D"/>
<path d="M259.703 23.7639C260.064 23.7645 260.412 23.6189 260.681 23.3551C261.083 22.9625 261.502 22.5909 261.935 22.2414C262.237 21.9832 262.434 21.6063 262.486 21.1909C262.538 20.7755 262.439 20.3545 262.212 20.0173C261.985 19.6801 261.646 19.4535 261.269 19.3855C260.891 19.3176 260.504 19.4138 260.191 19.6535C259.684 20.0638 259.194 20.4999 258.725 20.9604C258.505 21.178 258.35 21.4634 258.281 21.7791C258.212 22.0948 258.232 22.426 258.337 22.7293C258.443 23.0325 258.63 23.2936 258.874 23.4782C259.118 23.6629 259.407 23.7625 259.703 23.7639Z" fill="#499ED7"/>
<path d="M245.668 47.8245C245.955 47.8252 246.237 47.7333 246.478 47.5601C246.718 47.3869 246.907 47.1401 247.02 46.8504C247.134 46.5607 247.167 46.2407 247.116 45.9304C247.066 45.62 246.933 45.3329 246.734 45.1047C242.825 40.6222 240.648 34.6574 240.659 28.4573C240.659 24.8105 241.432 21.1507 242.889 17.8773C242.983 17.6864 243.041 17.4766 243.059 17.2605C243.078 17.0444 243.056 16.8265 242.995 16.6198C242.935 16.4132 242.837 16.2221 242.707 16.0581C242.577 15.8941 242.419 15.7605 242.241 15.6653C242.063 15.5702 241.869 15.5155 241.671 15.5045C241.473 15.4935 241.276 15.5265 241.09 15.6014C240.904 15.6763 240.734 15.7917 240.59 15.9405C240.445 16.0894 240.33 16.2686 240.251 16.4675C238.592 20.2044 237.728 24.3049 237.725 28.4605C237.713 35.4868 240.18 42.2461 244.61 47.3256C244.746 47.484 244.909 47.6101 245.091 47.696C245.273 47.7818 245.47 47.8256 245.668 47.8245Z" fill="#92CA62"/>
<path d="M271.5 47.7725C270.689 47.7725 270.031 47.0519 270.031 46.1631C270.031 45.2743 270.689 44.5537 271.5 44.5537C272.311 44.5537 272.969 45.2743 272.969 46.1631C272.969 47.0519 272.311 47.7725 271.5 47.7725Z" fill="#92CA62"/>
</svg>
